<svg width="259" height="218" viewBox="0 0 259 218" fill="none" xmlns="http://www.w3.org/2000/svg">
<path d="M236.174 31.133C218.098 10.4727 190.747 0 154.892 0H142.008V38.2914L152.367 40.4783C170.017 44.2002 182.295 51.5216 188.866 62.266C192.294 68.0542 194.239 74.6818 194.509 81.5H154.892C151.475 81.5 148.198 82.9311 145.782 85.4785C143.366 88.0258 142.008 91.4808 142.008 95.0833V190.167C142.008 205.149 153.565 217.333 167.775 217.333H245.076C248.493 217.333 251.77 215.902 254.187 213.355C256.603 210.807 257.96 207.353 257.96 203.75V135.833L257.921 96.1836C258.037 94.6758 260.485 58.9517 236.174 31.133ZM26.0568 217.333H103.358C106.775 217.333 110.052 215.902 112.468 213.355C114.884 210.807 116.241 207.353 116.241 203.75V135.833L116.203 96.1836C116.319 94.6758 118.767 58.9517 94.4554 31.133C76.3798 10.4727 49.0281 0 13.1733 0H0.289795V38.2914L10.6481 40.4783C28.2986 44.2002 40.5765 51.5216 47.1471 62.266C50.5755 68.0542 52.5199 74.6818 52.7901 81.5H13.1733C9.75638 81.5 6.4794 82.9311 4.06326 85.4785C1.64716 88.0258 0.289795 91.4808 0.289795 95.0833V190.167C0.289795 205.149 11.8463 217.333 26.0568 217.333Z" fill="#11AEB9"/>
</svg>
